<mxfile host="app.diagrams.net" modified="2024-05-30T15:21:52.894Z" agent="Mozilla/5.0 (Windows NT 10.0; Win64; x64) AppleWebKit/537.36 (KHTML, like Gecko) Chrome/123.0.0.0 Safari/537.36 OPR/109.0.0.0" etag="zWSIJgTCcuC4ehAu2mw6" version="24.4.10" type="device">
  <diagram name="Ð¡Ñ‚Ñ€Ð°Ð½Ð¸Ñ†Ð° â€” 1" id="UE7EYCa6l0vmfUOiky2-">
    <mxGraphModel dx="1393" dy="797" grid="1" gridSize="10" guides="1" tooltips="1" connect="1" arrows="1" fold="1" page="1" pageScale="1" pageWidth="827" pageHeight="1169" math="0" shadow="0">
      <root>
        <mxCell id="0" />
        <mxCell id="1" parent="0" />
        <mxCell id="gu9zImbLjNGcY76BoW3t-1" value="&lt;b&gt;&lt;font color=&quot;#0f000f&quot;&gt;bookings&lt;/font&gt;&lt;/b&gt;" style="rounded=0;whiteSpace=wrap;html=1;fillColor=#cdeb8b;strokeColor=none;" vertex="1" parent="1">
          <mxGeometry x="80" y="240" width="120" height="60" as="geometry" />
        </mxCell>
        <mxCell id="gu9zImbLjNGcY76BoW3t-28" style="edgeStyle=orthogonalEdgeStyle;rounded=0;orthogonalLoop=1;jettySize=auto;html=1;entryX=1;entryY=0.5;entryDx=0;entryDy=0;fillColor=#e51400;strokeColor=#B20000;" edge="1" parent="1" source="gu9zImbLjNGcY76BoW3t-2" target="gu9zImbLjNGcY76BoW3t-1">
          <mxGeometry relative="1" as="geometry" />
        </mxCell>
        <mxCell id="gu9zImbLjNGcY76BoW3t-2" value="&lt;b&gt;tours&lt;/b&gt;" style="rounded=0;whiteSpace=wrap;html=1;fillColor=#cdeb8b;strokeColor=none;" vertex="1" parent="1">
          <mxGeometry x="360" y="240" width="120" height="60" as="geometry" />
        </mxCell>
        <mxCell id="gu9zImbLjNGcY76BoW3t-3" value="&lt;b&gt;reviews&lt;/b&gt;" style="rounded=0;whiteSpace=wrap;html=1;fillColor=#cdeb8b;strokeColor=none;" vertex="1" parent="1">
          <mxGeometry x="640" y="480" width="120" height="60" as="geometry" />
        </mxCell>
        <mxCell id="gu9zImbLjNGcY76BoW3t-15" style="edgeStyle=orthogonalEdgeStyle;rounded=0;orthogonalLoop=1;jettySize=auto;html=1;entryX=0;entryY=0.5;entryDx=0;entryDy=0;fillColor=#e51400;strokeColor=#B20000;" edge="1" parent="1" source="gu9zImbLjNGcY76BoW3t-4" target="gu9zImbLjNGcY76BoW3t-3">
          <mxGeometry relative="1" as="geometry">
            <mxPoint x="590" y="510" as="targetPoint" />
          </mxGeometry>
        </mxCell>
        <mxCell id="gu9zImbLjNGcY76BoW3t-4" value="&lt;b&gt;users&lt;/b&gt;" style="rounded=0;whiteSpace=wrap;html=1;fillColor=#cdeb8b;strokeColor=none;" vertex="1" parent="1">
          <mxGeometry x="360" y="480" width="120" height="60" as="geometry" />
        </mxCell>
        <mxCell id="gu9zImbLjNGcY76BoW3t-5" value="THE NATOURS DATA MODEL&amp;nbsp;" style="text;html=1;align=center;verticalAlign=middle;resizable=0;points=[];autosize=1;strokeColor=none;fillColor=none;fontStyle=1;fontSize=26;" vertex="1" parent="1">
          <mxGeometry x="20" y="35" width="380" height="40" as="geometry" />
        </mxCell>
        <mxCell id="gu9zImbLjNGcY76BoW3t-7" value="&lt;b&gt;locations&lt;/b&gt;" style="rounded=0;whiteSpace=wrap;html=1;fillColor=#cdeb8b;strokeColor=none;" vertex="1" parent="1">
          <mxGeometry x="640" y="240" width="120" height="60" as="geometry" />
        </mxCell>
        <mxCell id="gu9zImbLjNGcY76BoW3t-9" value="&lt;div style=&quot;text-align: left;&quot;&gt;&lt;span style=&quot;background-color: initial;&quot;&gt;&lt;b&gt;â–¶ 1:MANY&lt;/b&gt;&lt;/span&gt;&lt;/div&gt;&lt;b&gt;ðŸ“— Parent referencing&lt;/b&gt;" style="text;html=1;align=center;verticalAlign=middle;resizable=0;points=[];autosize=1;strokeColor=none;fillColor=none;" vertex="1" parent="1">
          <mxGeometry x="495" y="520" width="150" height="40" as="geometry" />
        </mxCell>
        <mxCell id="gu9zImbLjNGcY76BoW3t-10" value="P" style="text;html=1;align=center;verticalAlign=middle;resizable=0;points=[];autosize=1;strokeColor=none;fillColor=#60a917;fontColor=#ffffff;rounded=1;arcSize=50;" vertex="1" parent="1">
          <mxGeometry x="490" y="470" width="30" height="30" as="geometry" />
        </mxCell>
        <mxCell id="gu9zImbLjNGcY76BoW3t-11" value="C" style="text;html=1;align=center;verticalAlign=middle;resizable=0;points=[];autosize=1;strokeColor=none;fillColor=#60a917;fontColor=#ffffff;rounded=1;arcSize=50;" vertex="1" parent="1">
          <mxGeometry x="600" y="470" width="30" height="30" as="geometry" />
        </mxCell>
        <mxCell id="gu9zImbLjNGcY76BoW3t-13" value="" style="endArrow=classic;html=1;rounded=0;exitX=1;exitY=1;exitDx=0;exitDy=0;fillColor=#e51400;strokeColor=#B20000;" edge="1" parent="1" source="gu9zImbLjNGcY76BoW3t-2">
          <mxGeometry width="50" height="50" relative="1" as="geometry">
            <mxPoint x="490" y="310" as="sourcePoint" />
            <mxPoint x="640" y="480" as="targetPoint" />
          </mxGeometry>
        </mxCell>
        <mxCell id="gu9zImbLjNGcY76BoW3t-16" value="P" style="text;html=1;align=center;verticalAlign=middle;resizable=0;points=[];autosize=1;strokeColor=none;fillColor=#60a917;fontColor=#ffffff;rounded=1;arcSize=50;" vertex="1" parent="1">
          <mxGeometry x="470" y="320" width="30" height="30" as="geometry" />
        </mxCell>
        <mxCell id="gu9zImbLjNGcY76BoW3t-17" value="&lt;div style=&quot;text-align: left;&quot;&gt;&lt;span style=&quot;background-color: initial;&quot;&gt;&lt;b&gt;â–¶ 1:MANY&lt;/b&gt;&lt;/span&gt;&lt;/div&gt;&lt;b&gt;ðŸ“— Parent referencing&lt;/b&gt;" style="text;html=1;align=center;verticalAlign=middle;resizable=0;points=[];autosize=1;strokeColor=none;fillColor=none;" vertex="1" parent="1">
          <mxGeometry x="565" y="350" width="150" height="40" as="geometry" />
        </mxCell>
        <mxCell id="gu9zImbLjNGcY76BoW3t-18" value="" style="edgeStyle=none;orthogonalLoop=1;jettySize=auto;html=1;endArrow=classic;startArrow=classic;endSize=8;startSize=8;rounded=0;exitX=1;exitY=0.5;exitDx=0;exitDy=0;entryX=0;entryY=0.5;entryDx=0;entryDy=0;fillColor=#e51400;strokeColor=#B20000;" edge="1" parent="1" source="gu9zImbLjNGcY76BoW3t-2" target="gu9zImbLjNGcY76BoW3t-7">
          <mxGeometry width="100" relative="1" as="geometry">
            <mxPoint x="520" y="279.5" as="sourcePoint" />
            <mxPoint x="620" y="279.5" as="targetPoint" />
            <Array as="points" />
          </mxGeometry>
        </mxCell>
        <mxCell id="gu9zImbLjNGcY76BoW3t-19" value="&lt;div style=&quot;text-align: left;&quot;&gt;&lt;span style=&quot;background-color: initial;&quot;&gt;&lt;b&gt;â–¶ FEW:FEW&lt;/b&gt;&lt;/span&gt;&lt;/div&gt;&lt;b&gt;ðŸ“™ Embedding&lt;/b&gt;" style="text;html=1;align=center;verticalAlign=middle;resizable=0;points=[];autosize=1;strokeColor=none;fillColor=none;" vertex="1" parent="1">
          <mxGeometry x="505" y="220" width="110" height="40" as="geometry" />
        </mxCell>
        <mxCell id="gu9zImbLjNGcY76BoW3t-21" value="" style="edgeStyle=none;orthogonalLoop=1;jettySize=auto;html=1;endArrow=classic;startArrow=classic;endSize=8;startSize=8;rounded=0;entryX=0.117;entryY=0;entryDx=0;entryDy=0;entryPerimeter=0;exitX=0.125;exitY=1;exitDx=0;exitDy=0;exitPerimeter=0;fillColor=#e51400;strokeColor=#B20000;" edge="1" parent="1" source="gu9zImbLjNGcY76BoW3t-2" target="gu9zImbLjNGcY76BoW3t-4">
          <mxGeometry width="100" relative="1" as="geometry">
            <mxPoint x="379" y="310" as="sourcePoint" />
            <mxPoint x="380" y="415" as="targetPoint" />
            <Array as="points" />
          </mxGeometry>
        </mxCell>
        <mxCell id="gu9zImbLjNGcY76BoW3t-22" value="&lt;b&gt;tour guides&lt;/b&gt;" style="text;html=1;align=center;verticalAlign=middle;resizable=0;points=[];autosize=1;strokeColor=none;fillColor=none;rotation=270;" vertex="1" parent="1">
          <mxGeometry x="305" y="380" width="90" height="30" as="geometry" />
        </mxCell>
        <mxCell id="gu9zImbLjNGcY76BoW3t-23" value="&lt;div style=&quot;text-align: left;&quot;&gt;&lt;span style=&quot;background-color: initial;&quot;&gt;&lt;b&gt;â–¶ FEW:FEW&lt;br&gt;ðŸ“˜ Child referencing&lt;br&gt;&lt;span style=&quot;white-space: pre;&quot;&gt;&#x9;&lt;/span&gt;&lt;span style=&quot;white-space: pre;&quot;&gt;&#x9;&lt;/span&gt;&lt;i&gt;or&lt;/i&gt;&lt;br&gt;&lt;/b&gt;&lt;/span&gt;&lt;/div&gt;&lt;div style=&quot;text-align: left;&quot;&gt;&lt;span style=&quot;background-color: initial;&quot;&gt;&lt;b&gt;ðŸ“™ Embedding&lt;/b&gt;&lt;/span&gt;&lt;/div&gt;" style="text;html=1;align=center;verticalAlign=middle;resizable=0;points=[];autosize=1;strokeColor=none;fillColor=none;" vertex="1" parent="1">
          <mxGeometry x="375" y="360" width="140" height="70" as="geometry" />
        </mxCell>
        <mxCell id="gu9zImbLjNGcY76BoW3t-26" value="" style="endArrow=classic;html=1;rounded=0;entryX=1;entryY=1;entryDx=0;entryDy=0;fillColor=#e51400;strokeColor=#B20000;" edge="1" parent="1" target="gu9zImbLjNGcY76BoW3t-1">
          <mxGeometry width="50" height="50" relative="1" as="geometry">
            <mxPoint x="360" y="480" as="sourcePoint" />
            <mxPoint x="290" y="400" as="targetPoint" />
            <Array as="points" />
          </mxGeometry>
        </mxCell>
        <mxCell id="gu9zImbLjNGcY76BoW3t-29" value="P" style="text;html=1;align=center;verticalAlign=middle;resizable=0;points=[];autosize=1;strokeColor=none;fillColor=#60a917;fontColor=#ffffff;rounded=1;glass=0;arcSize=50;" vertex="1" parent="1">
          <mxGeometry x="320" y="480" width="30" height="30" as="geometry" />
        </mxCell>
        <mxCell id="gu9zImbLjNGcY76BoW3t-30" value="P" style="text;html=1;align=center;verticalAlign=middle;resizable=0;points=[];autosize=1;strokeColor=none;fillColor=#60a917;fontColor=#ffffff;glass=0;rounded=1;arcSize=50;" vertex="1" parent="1">
          <mxGeometry x="320" y="280" width="30" height="30" as="geometry" />
        </mxCell>
        <mxCell id="gu9zImbLjNGcY76BoW3t-31" value="C" style="text;html=1;align=center;verticalAlign=middle;resizable=0;points=[];autosize=1;strokeColor=none;fillColor=#60a917;fontColor=#ffffff;rounded=1;arcSize=50;" vertex="1" parent="1">
          <mxGeometry x="210" y="280" width="30" height="30" as="geometry" />
        </mxCell>
        <mxCell id="gu9zImbLjNGcY76BoW3t-32" value="C" style="text;html=1;align=center;verticalAlign=middle;resizable=0;points=[];autosize=1;strokeColor=none;fillColor=#60a917;fontColor=#ffffff;rounded=1;arcSize=50;direction=south;" vertex="1" parent="1">
          <mxGeometry x="170" y="310" width="30" height="30" as="geometry" />
        </mxCell>
        <mxCell id="gu9zImbLjNGcY76BoW3t-33" value="&lt;div style=&quot;text-align: left;&quot;&gt;&lt;span style=&quot;background-color: initial;&quot;&gt;&lt;b&gt;â–¶ 1:MANY&lt;/b&gt;&lt;/span&gt;&lt;/div&gt;&lt;b&gt;ðŸ“— Parent referencing&lt;/b&gt;" style="text;html=1;align=center;verticalAlign=middle;resizable=0;points=[];autosize=1;strokeColor=none;fillColor=none;" vertex="1" parent="1">
          <mxGeometry x="205" y="220" width="150" height="40" as="geometry" />
        </mxCell>
        <mxCell id="gu9zImbLjNGcY76BoW3t-34" value="&lt;div style=&quot;text-align: left;&quot;&gt;&lt;span style=&quot;background-color: initial;&quot;&gt;&lt;b&gt;â–¶ 1:MANY&lt;/b&gt;&lt;/span&gt;&lt;/div&gt;&lt;b&gt;ðŸ“— Parent referencing&lt;/b&gt;" style="text;html=1;align=center;verticalAlign=middle;resizable=0;points=[];autosize=1;strokeColor=none;fillColor=none;" vertex="1" parent="1">
          <mxGeometry x="135" y="380" width="150" height="40" as="geometry" />
        </mxCell>
        <mxCell id="gu9zImbLjNGcY76BoW3t-35" value="&lt;b&gt;userID: [&amp;lt;id&amp;gt;,&lt;/b&gt;&lt;div&gt;&lt;b&gt;&amp;lt;id&amp;gt;, ..., &amp;lt;id&amp;gt;]&lt;/b&gt;&lt;/div&gt;" style="rounded=0;whiteSpace=wrap;html=1;fillColor=#eeeeee;strokeColor=none;" vertex="1" parent="1">
          <mxGeometry x="360" y="150" width="120" height="60" as="geometry" />
        </mxCell>
        <mxCell id="gu9zImbLjNGcY76BoW3t-36" value="&lt;b&gt;tourID: &amp;lt;id&amp;gt;&lt;br&gt;userID: &amp;lt;id&amp;gt;&lt;/b&gt;" style="rounded=0;whiteSpace=wrap;html=1;strokeColor=none;fillColor=#eeeeee;" vertex="1" parent="1">
          <mxGeometry x="20" y="320" width="95" height="50" as="geometry" />
        </mxCell>
        <mxCell id="gu9zImbLjNGcY76BoW3t-37" value="&lt;b&gt;tourID: &amp;lt;id&amp;gt;&lt;br&gt;userID: &amp;lt;id&amp;gt;&lt;/b&gt;" style="rounded=0;whiteSpace=wrap;html=1;strokeColor=none;fillColor=#eeeeee;" vertex="1" parent="1">
          <mxGeometry x="710" y="560" width="95" height="50" as="geometry" />
        </mxCell>
        <mxCell id="gu9zImbLjNGcY76BoW3t-38" value="&lt;div style=&quot;text-align: justify;&quot;&gt;&lt;span style=&quot;background-color: rgb(96, 169, 23);&quot;&gt;&lt;font color=&quot;#ffffff&quot;&gt;&amp;nbsp; &amp;nbsp;P&amp;nbsp; &amp;nbsp;&lt;/font&gt;&lt;/span&gt;&lt;span style=&quot;background-color: initial;&quot;&gt;Parent&lt;/span&gt;&lt;/div&gt;&lt;div style=&quot;text-align: justify;&quot;&gt;&lt;span style=&quot;background-color: rgb(96, 169, 23);&quot;&gt;&lt;font color=&quot;#ffffff&quot;&gt;&amp;nbsp; &amp;nbsp;C&amp;nbsp; &amp;nbsp;&lt;/font&gt;&lt;/span&gt;&lt;span style=&quot;background-color: initial;&quot;&gt;Child&lt;/span&gt;&lt;/div&gt;" style="rounded=0;whiteSpace=wrap;html=1;align=center;fillColor=#eeeeee;strokeColor=none;" vertex="1" parent="1">
          <mxGeometry x="20" y="550" width="100" height="60" as="geometry" />
        </mxCell>
      </root>
    </mxGraphModel>
  </diagram>
</mxfile>
